PathFileType	4	(X/Y/Z)	C:\Users\Basilio\Documents\Thesis Gigler\squatting_fais\c3dfiles\040\SLS_pre_back1\markers_experimental.trc
DataRate	CameraRate	NumFrames	NumMarkers	Units	OrigDataRate	OrigDataStartFrame	OrigNumFrames
200.000000	200.000000	4	64	mm	200.000000	268	1073
Frame#	Time	FHD			LBHD			RBHD			C7			T10			CLAV			LSHO			LUUPA			LMUPA			LDUPA			LLEP			LMEP			LRAD			LUL			LRFIN			RSHO			RUPA1			RMUPA			RDUPA			RLEP			RMEP			RRAD			RUL			RUFIN			LASI			RASI			USACR			LSACR			RSACR			LTHI1			LTHI2			LTHI3			LTHI4			LLFC			LMFC			LTIB1			LTIB2			LTIB3			LTIB4			LLMAL			LMMAL			LHEE			LMT1			LMT2			LMT5			RTHI			RTHI2			RTHI3			RTHI4			RLFC			RMFC			RTIB1			RTIB2			RTIB3			RTIB4			RLMAL			RMMAL			RHEE			RMT1			RMT2			RMT5			*61			*62			*63			
		X1	Y1	Z1	X2	Y2	Z2	X3	Y3	Z3	X4	Y4	Z4	X5	Y5	Z5	X6	Y6	Z6	X7	Y7	Z7	X8	Y8	Z8	X9	Y9	Z9	X10	Y10	Z10	X11	Y11	Z11	X12	Y12	Z12	X13	Y13	Z13	X14	Y14	Z14	X15	Y15	Z15	X16	Y16	Z16	X17	Y17	Z17	X18	Y18	Z18	X19	Y19	Z19	X20	Y20	Z20	X21	Y21	Z21	X22	Y22	Z22	X23	Y23	Z23	X24	Y24	Z24	X25	Y25	Z25	X26	Y26	Z26	X27	Y27	Z27	X28	Y28	Z28	X29	Y29	Z29	X30	Y30	Z30	X31	Y31	Z31	X32	Y32	Z32	X33	Y33	Z33	X34	Y34	Z34	X35	Y35	Z35	X36	Y36	Z36	X37	Y37	Z37	X38	Y38	Z38	X39	Y39	Z39	X40	Y40	Z40	X41	Y41	Z41	X42	Y42	Z42	X43	Y43	Z43	X44	Y44	Z44	X45	Y45	Z45	X46	Y46	Z46	X47	Y47	Z47	X48	Y48	Z48	X49	Y49	Z49	X50	Y50	Z50	X51	Y51	Z51	X52	Y52	Z52	X53	Y53	Z53	X54	Y54	Z54	X55	Y55	Z55	X56	Y56	Z56	X57	Y57	Z57	X58	Y58	Z58	X59	Y59	Z59	X60	Y60	Z60	X61	Y61	Z61	X62	Y62	Z62	X63	Y63	Z63	X64	Y64	Z64	

269	1.34	-100.3957214355469	1753.073974609375	-1270.601196289063	-227.0472106933594	1706.530395507813	-1310.537963867188	-281.7475585937501	1675.653076171875	-1177.765625	-301.4179077148438	1561.232788085938	-1223.783569335938	-391.2042541503907	1260.33154296875	-1183.32763671875	-187.1465148925782	1473.2802734375	-1218.818359375	-231.8706359863282	1527.799194335938	-1367.132690429688	-84.2506790161133	1437.78515625	-1431.490478515625	-51.81960678100587	1448.722045898438	-1395.129150390625	-19.27302360534668	1411.593994140625	-1430.5712890625	30.714017868042	1372.827758789063	-1426.38525390625	6.067498207092287	1322.613647460938	-1390.390014648438	278.6370239257813	1334.52001953125	-1280.972045898438	298.2314147949219	1342.27978515625	-1354.119506835938	372.8504028320313	1334.210327148438	-1265.889282226563	-211.9471435546876	1524.704711914063	-1075.609252929688	-80.4779510498047	1407.30810546875	-1010.179870605469	-46.12103652954102	1422.404296875	-1040.478759765625	-19.62457275390625	1373.031616210938	-1017.370239257813	36.52738189697266	1347.243286132813	-1031.685913085938	6.959669113159181	1298.075439453125	-1079.601318359375	282.8355407714844	1322.934692382813	-1195.256225585938	298.7809448242188	1303.704833984375	-1122.047241210938	371.2617492675782	1325.259521484375	-1208.273315429688	-253.4768066406251	1048.44775390625	-1283.678344726563	-242.0385131835938	1056.854736328125	-1055.331176757813	-423.8703918457032	1128.78173828125	-1163.8681640625	-438.4287109375001	1099.27392578125	-1190.387451171875	-435.1145935058595	1101.261596679688	-1133.639770507813	-344.9836730957032	795.866149902344	-1333.863891601563	-293.6221313476563	728.7524414062501	-1338.380126953125	-248.2250061035157	740.3228759765626	-1344.414916992188	-303.0204772949219	673.1716918945314	-1320.998901367188	-262.1206970214844	546.7651977539064	-1305.675048828125	-254.0102844238282	537.7364501953126	-1175.1162109375	-246.1780700683594	324.5868225097657	-1244.713012695313	-324.9414978027344	293.4659423828126	-1274.4951171875	-283.2366333007813	282.1077880859376	-1263.286254882813	-283.6169738769532	207.7203216552735	-1220.250366210938	-360.0863952636719	125.8588104248047	-1217.695678710938	-322.6719665527344	148.3988952636719	-1141.280883789063	-419.9283752441407	99.11934661865237	-1164.208862304688	-208.0940856933594	62.23513412475587	-1134.314453125	-206.3857879638672	49.15999221801759	-1178.877197265625	-256.7109680175782	30.35125923156739	-1227.522338867188	-299.9074707031251	800.9981689453127	-973.2175903320315	-267.2286682128907	742.9040527343751	-974.2866821289065	-235.3948669433594	743.1597900390626	-981.782653808594	-300.3144226074219	665.9615478515626	-975.698425292969	-314.6220092773438	559.6437377929689	-982.3569335937502	-323.4346008300782	543.4152832031251	-1108.101684570313	-456.3274536132814	441.4720764160157	-994.5244140625002	-552.6192016601564	490.5704956054689	-979.0088500976565	-541.5944213867189	444.6960754394532	-982.4062500000002	-579.8110351562501	409.6570739746095	-1012.843994140625	-708.4507446289064	422.4562377929689	-996.419372558594	-684.9459838867189	405.4276733398439	-1081.046875	-764.4443969726564	466.5080566406251	-1061.253051757813	-704.1659545898439	252.2750854492188	-1055.432250976563	-711.0191040039064	255.9546508789063	-1017.213989257813	-755.9285888671876	288.3049621582032	-973.5173339843752	nan	nan	nan	nan	nan	nan	nan	nan	nan	
270	1.345	-99.6182556152344	1752.218383789063	-1270.501098632813	-226.5968627929688	1705.803100585938	-1310.558471679688	-281.1975097656251	1674.989624023438	-1177.747924804688	-300.8195800781251	1560.717163085938	-1223.792846679688	-391.3251037597657	1260.020629882813	-1183.16845703125	-186.8151550292969	1472.6845703125	-1218.860595703125	-231.2974700927735	1527.193603515625	-1367.094360351563	-83.72778320312501	1437.398071289063	-1431.535278320313	-51.19269180297853	1448.372436523438	-1395.141723632813	-18.7983455657959	1411.328369140625	-1430.659790039063	31.38537406921387	1372.614624023438	-1426.615112304688	6.597536563873293	1322.34130859375	-1390.646240234375	279.4398498535157	1334.073608398438	-1281.010131835938	298.5396728515626	1342.517578125	-1354.268188476563	373.2755737304688	1334.160766601563	-1266.066040039063	-212.1107482910157	1524.0673828125	-1076.0126953125	-79.68657684326173	1407.00341796875	-1010.234619140625	-45.92448425292969	1421.999877929688	-1040.828369140625	-19.83825111389161	1371.98876953125	-1018.072387695313	37.01131057739259	1347.86376953125	-1031.97119140625	7.645639896392824	1297.750244140625	-1079.709228515625	283.5292968750001	1322.739990234375	-1195.589599609375	299.2262878417969	1303.162841796875	-1122.273193359375	371.8593444824219	1324.99658203125	-1208.635131835938	-254.0428314208985	1047.830200195313	-1283.36328125	-242.6693267822266	1056.485961914063	-1055.10595703125	-424.3420410156251	1128.439697265625	-1163.7529296875	-438.9585571289064	1099.057250976563	-1190.194580078125	-435.6214599609376	1101.057250976563	-1133.518676757813	-345.1244506835938	795.3596191406252	-1333.928588867188	-293.4701843261719	728.4047241210939	-1338.538208007813	-248.0454254150391	740.0941162109376	-1344.543579101563	-302.6405029296876	672.7558593750001	-1321.10986328125	-261.3138732910157	546.2519531250001	-1305.862182617188	-253.4488830566407	537.4998779296876	-1175.116943359375	-245.6198425292969	323.9217834472657	-1244.96875	-324.5574951171876	293.8994750976563	-1274.780883789063	-283.2868041992188	282.0622558593751	-1262.9462890625	-283.3845214843751	207.9275207519532	-1220.325439453125	-360.0168762207032	125.8626861572266	-1217.778930664063	-322.5862731933594	148.4107513427735	-1141.299194335938	-419.8989562988282	99.28972625732425	-1164.343017578125	-208.0923461914063	62.22355270385744	-1134.231689453125	-206.3877868652344	49.10839462280275	-1178.8544921875	-256.6735534667969	30.32352256774903	-1227.51708984375	-300.6420898437501	800.5754394531252	-973.1051025390627	-268.3179931640626	742.1737670898439	-974.1301879882815	-236.1872558593751	742.4406738281251	-981.6650390625002	-301.5166320800782	665.5057983398439	-975.3988037109377	-315.7074279785157	558.8278198242189	-982.5403442382815	-324.5819702148438	543.0166625976564	-1108.014892578125	-457.4457092285157	440.5688781738282	-996.0678710937502	-553.4996337890626	489.9796142578126	-978.697448730469	-542.4054565429689	443.9228515625001	-982.2979125976565	-580.8419189453126	409.3753662109376	-1012.121459960938	-709.6026611328126	421.9739685058595	-995.980163574219	-686.0520019531251	404.9773864746095	-1080.695190429688	-765.2101440429689	466.1858520507814	-1060.73583984375	-705.2603759765626	251.4094390869141	-1054.924072265625	-711.9395141601564	254.9754333496094	-1016.773803710938	-756.3951416015626	287.8315429687501	-972.9038696289065	nan	nan	nan	nan	nan	nan	nan	nan	nan	
271	1.35	-99.34187316894534	1751.629028320313	-1270.72314453125	-225.7049560546876	1704.948974609375	-1310.542724609375	-280.6560668945313	1674.298828125	-1177.804443359375	-300.0657653808594	1560.110229492188	-1223.75244140625	-391.3614501953126	1259.623413085938	-1183.078247070313	-186.2952575683594	1472.112182617188	-1218.993041992188	-230.8961944580079	1526.60107421875	-1366.91796875	-83.21531677246095	1437.02978515625	-1431.613525390625	-50.86518859863283	1448.001953125	-1395.08349609375	-18.26983642578125	1411.066650390625	-1430.754028320313	31.83094787597657	1372.419067382813	-1426.785888671875	7.02495336532593	1322.229736328125	-1390.962890625	279.8165283203126	1333.943359375	-1281.208129882813	299.3470153808594	1342.3291015625	-1354.560791015625	373.5544433593751	1334.53466796875	-1266.3310546875	-210.7714996337891	1523.923217773438	-1075.965209960938	-78.95855712890626	1406.55029296875	-1010.346801757813	-45.1230812072754	1421.369018554688	-1041.091186523438	-18.41621208190918	1372.125854492188	-1017.510864257813	37.67431640625001	1347.376220703125	-1032.027709960938	8.861085891723635	1297.56494140625	-1079.971801757813	284.0927734375001	1322.62158203125	-1195.879272460938	299.1701354980469	1302.320190429688	-1123.02880859375	372.3570861816407	1324.798217773438	-1208.900756835938	-254.5265350341797	1047.283935546875	-1283.201293945313	-243.4607238769532	1056.022583007813	-1054.876342773438	-424.7265625000001	1128.177124023438	-1163.602905273438	-439.4926757812501	1098.781616210938	-1190.061401367188	-436.1177978515626	1100.801513671875	-1133.338623046875	-345.0859985351563	794.8314208984377	-1334.015502929688	-293.2268371582032	728.0083007812501	-1338.702758789063	-247.7613067626954	739.7874755859376	-1344.742065429688	-302.2230224609376	672.2692871093751	-1321.305419921875	-260.6912231445313	546.3738403320314	-1305.936401367188	-253.1746520996094	537.2763061523439	-1175.217651367188	-245.5288696289063	324.5060424804688	-1244.915771484375	-324.1507873535157	293.8156738281251	-1274.902221679688	-282.9144592285157	282.1437072753907	-1262.98681640625	-283.1937255859376	207.8411407470704	-1220.322509765625	-359.9940795898438	125.8775253295899	-1217.7841796875	-322.4953613281251	148.2839050292969	-1141.309936523438	-419.8296813964845	99.31462097167972	-1164.377563476563	-208.1051483154297	62.11592483520509	-1134.225830078125	-206.3997802734376	49.11385726928712	-1178.877685546875	-256.6872558593751	30.24338531494141	-1227.511840820313	-301.4558105468751	800.2371826171877	-972.830261230469	-269.1284484863282	741.5894165039064	-974.0505981445315	-237.2391815185547	742.1505737304689	-981.451599121094	-302.0289306640626	665.0852050781251	-975.4188232421877	-316.3512268066407	558.3117065429689	-982.0452270507815	-325.5794372558594	542.6550903320314	-1107.81689453125	-457.6236877441407	440.765838623047	-994.5739746093752	-554.4346313476564	489.3848571777345	-978.7431640625002	-543.4290161132814	443.5352172851564	-981.9309692382815	-581.7966918945314	408.8845214843751	-1012.0263671875	-710.2548828125001	421.1232910156251	-995.862243652344	-687.3258666992189	404.5337219238282	-1080.351684570313	-766.1737670898439	465.5907287597657	-1060.47998046875	-706.3057861328126	251.1831359863282	-1054.901489257813	-712.9349365234376	254.6448669433594	-1016.339599609375	-757.8666381835939	287.0573425292969	-972.6722412109377	nan	nan	nan	nan	nan	nan	nan	nan	nan	
272	1.355	-98.71608734130862	1750.886596679688	-1270.868530273438	-225.4304504394532	1704.38134765625	-1310.549438476563	-280.1347045898438	1673.528198242188	-1177.860473632813	-299.5187683105469	1559.537109375	-1223.77978515625	-391.467254638672	1259.359252929688	-1183.010498046875	-185.8187103271485	1471.154663085938	-1219.041870117188	-230.3865814208985	1526.030395507813	-1366.948608398438	-82.74094390869142	1436.748779296875	-1431.622802734375	-50.42746734619142	1447.679809570313	-1395.022583007813	-17.83965492248536	1410.736450195313	-1430.898803710938	32.36914062500001	1372.270874023438	-1426.944091796875	7.892065048217775	1321.651489257813	-1391.245483398438	280.4764709472657	1333.9013671875	-1281.223876953125	299.8597717285157	1342.15771484375	-1354.596801757813	374.7443847656251	1333.765258789063	-1266.415649414063	-210.2779235839844	1523.155883789063	-1076.22119140625	-78.28143310546876	1406.206909179688	-1010.292419433594	-44.59934997558594	1421.210693359375	-1041.22412109375	-17.95056533813477	1371.973266601563	-1017.856994628906	38.69147491455079	1346.969116210938	-1032.295776367188	9.32543468475342	1297.395385742188	-1079.696166992188	284.7252197265626	1322.13671875	-1196.151977539063	299.5451354980469	1302.019165039063	-1123.235717773438	372.9960632324219	1324.671142578125	-1209.15771484375	-255.0763549804688	1046.756713867188	-1282.961791992188	-244.1649322509766	1055.164916992188	-1054.727416992188	-425.1249084472657	1127.872680664063	-1163.437622070313	-440.0180969238282	1098.596313476563	-1189.90087890625	-436.5693664550782	1100.4873046875	-1133.23828125	-345.1084289550782	794.4281005859377	-1333.995361328125	-292.9864501953126	727.7180175781251	-1338.76806640625	-247.5553741455079	739.5681152343751	-1344.879150390625	-301.7813415527344	671.8890380859376	-1321.453979492188	-259.8603210449219	546.0071411132814	-1306.02978515625	-252.350082397461	537.1235961914064	-1175.503540039063	-245.0039520263672	324.0059814453126	-1244.878295898438	-323.5184326171876	293.5904846191407	-1275.18359375	-282.4659118652344	281.9967956542969	-1262.917236328125	-282.9206542968751	207.8289337158204	-1220.312255859375	-359.9046936035157	125.9088211059571	-1217.808837890625	-322.4510192871094	148.3463287353516	-1141.364013671875	-419.8251037597657	99.24942016601565	-1164.45947265625	-208.0641021728516	62.05938720703126	-1134.134033203125	-206.4256286621094	49.07170486450197	-1178.913818359375	-256.6300659179688	30.22802925109864	-1227.531005859375	-302.4652404785157	799.7513427734377	-972.7581176757815	-270.1589965820313	741.4713134765626	-973.8484497070315	-237.9880828857422	741.3455200195314	-981.2716064453127	-303.0307617187501	664.5096435546876	-975.3927001953127	-317.4660644531251	557.6517333984376	-981.9182128906252	-326.5653076171876	542.1192016601564	-1107.6435546875	-459.4990539550782	439.6663513183595	-995.9956054687502	-555.4752807617189	488.7597045898439	-978.4071044921877	-544.4014892578126	442.7661437988282	-981.6219482421877	-582.6377563476564	408.607879638672	-1011.563598632813	-711.6904296875001	420.2121887207032	-995.512878417969	-688.3050537109376	404.012908935547	-1079.98046875	-767.6102294921876	465.1597595214845	-1059.941040039063	-707.2249145507814	250.5533752441407	-1054.725219726563	-713.6982421875001	254.0765991210938	-1016.116882324219	-758.7917480468751	286.5257263183594	-972.3848266601565	nan	nan	nan	nan	nan	nan	nan	nan	nan	
